<?xml version="1.0" encoding="UTF-8" standalone="no"?><!DOCTYPE svg PUBLIC "-//W3C//DTD SVG 1.1//EN" "http://www.w3.org/Graphics/SVG/1.1/DTD/svg11.dtd"><svg width="100%" height="100%" viewBox="0 0 868 156" version="1.1" xmlns="http://www.w3.org/2000/svg" xmlns:xlink="http://www.w3.org/1999/xlink" xml:space="preserve" xmlns:serif="http://www.serif.com/" style="fill-rule:evenodd;clip-rule:evenodd;stroke-linejoin:round;stroke-miterlimit:2;"><g transform="matrix(1.789563,0,0,1.789563,-704.833885,-590.744363)"><g transform="matrix(117.862535,0,0,117.862535,486.394661,415.673538)"><path d="M0.064,-0L0.064,-0.7L0.323,-0.7C0.372,-0.7 0.415,-0.692 0.452,-0.675C0.488,-0.659 0.518,-0.635 0.539,-0.604C0.56,-0.573 0.571,-0.535 0.571,-0.49C0.571,-0.445 0.56,-0.407 0.539,-0.376C0.518,-0.344 0.488,-0.32 0.452,-0.303C0.415,-0.287 0.372,-0.279 0.323,-0.279L0.192,-0.279L0.192,-0L0.064,-0ZM0.192,-0.388L0.32,-0.388C0.365,-0.388 0.396,-0.397 0.414,-0.416C0.432,-0.435 0.441,-0.46 0.441,-0.49C0.441,-0.519 0.432,-0.543 0.414,-0.562C0.396,-0.582 0.365,-0.591 0.32,-0.591L0.192,-0.591L0.192,-0.388Z" style="fill:#f2d855;fill-rule:nonzero;"/></g><g transform="matrix(117.862535,0,0,117.862535,555.815694,415.673538)"><path d="M0.045,-0L0.045,-0.496L0.172,-0.496L0.172,-0.422C0.189,-0.45 0.211,-0.471 0.238,-0.486C0.265,-0.501 0.294,-0.508 0.327,-0.508L0.327,-0.374L0.293,-0.374C0.252,-0.374 0.222,-0.364 0.202,-0.345C0.182,-0.326 0.172,-0.293 0.172,-0.248L0.172,-0L0.045,-0Z" style="fill:#f2d855;fill-rule:nonzero;"/></g><g transform="matrix(117.862535,0,0,117.862535,596.124681,415.673538)"><path d="M0.114,-0.56C0.091,-0.56 0.072,-0.568 0.056,-0.585C0.039,-0.601 0.031,-0.62 0.031,-0.643C0.031,-0.666 0.039,-0.686 0.056,-0.702C0.072,-0.718 0.091,-0.726 0.114,-0.726C0.137,-0.726 0.157,-0.718 0.173,-0.702C0.189,-0.686 0.197,-0.666 0.197,-0.643C0.197,-0.62 0.189,-0.601 0.173,-0.585C0.157,-0.568 0.137,-0.56 0.114,-0.56ZM0.05,-0L0.05,-0.496L0.178,-0.496L0.178,-0L0.05,-0Z" style="fill:#f2d855;fill-rule:nonzero;"/></g><g transform="matrix(117.862535,0,0,117.862535,622.879476,415.673538)"><path d="M0.064,-0L0.064,-0.7L0.216,-0.7L0.415,-0.248L0.611,-0.7L0.763,-0.7L0.763,-0L0.635,-0L0.635,-0.472L0.464,-0.089L0.363,-0.089L0.192,-0.472L0.192,-0L0.064,-0Z" style="fill:#5d4b89;fill-rule:nonzero;"/></g><g transform="matrix(117.862535,0,0,117.862535,720.351793,415.673538)"><path d="M0.114,-0.56C0.091,-0.56 0.072,-0.568 0.056,-0.585C0.039,-0.601 0.031,-0.62 0.031,-0.643C0.031,-0.666 0.039,-0.686 0.056,-0.702C0.072,-0.718 0.091,-0.726 0.114,-0.726C0.137,-0.726 0.157,-0.718 0.173,-0.702C0.189,-0.686 0.197,-0.666 0.197,-0.643C0.197,-0.62 0.189,-0.601 0.173,-0.585C0.157,-0.568 0.137,-0.56 0.114,-0.56ZM0.05,-0L0.05,-0.496L0.178,-0.496L0.178,-0L0.05,-0Z" style="fill:#5d4b89;fill-rule:nonzero;"/></g><g transform="matrix(117.862535,0,0,117.862535,747.106589,415.673538)"><path d="M0.045,-0L0.045,-0.496L0.172,-0.496L0.172,-0.438C0.189,-0.461 0.212,-0.479 0.241,-0.49C0.271,-0.502 0.3,-0.508 0.329,-0.508C0.386,-0.508 0.433,-0.49 0.47,-0.453C0.507,-0.416 0.525,-0.362 0.525,-0.292L0.525,-0L0.398,-0L0.398,-0.275C0.398,-0.312 0.389,-0.343 0.369,-0.365C0.351,-0.389 0.323,-0.4 0.286,-0.4C0.249,-0.4 0.221,-0.389 0.202,-0.365C0.182,-0.343 0.172,-0.312 0.172,-0.275L0.172,-0L0.045,-0Z" style="fill:#5d4b89;fill-rule:nonzero;"/></g><g transform="matrix(117.862535,0,0,117.862535,813.345333,415.673538)"><path d="M0.259,0.012C0.211,0.012 0.17,0 0.136,-0.024C0.101,-0.047 0.075,-0.079 0.057,-0.119C0.038,-0.158 0.029,-0.202 0.029,-0.25C0.029,-0.298 0.038,-0.341 0.057,-0.381C0.076,-0.419 0.102,-0.451 0.137,-0.474C0.172,-0.496 0.212,-0.508 0.259,-0.508C0.291,-0.508 0.322,-0.501 0.351,-0.488C0.38,-0.475 0.404,-0.455 0.424,-0.43L0.424,-0.7L0.553,-0.7L0.553,-0L0.424,-0L0.424,-0.071C0.407,-0.044 0.384,-0.023 0.354,-0.009C0.324,0.005 0.292,0.012 0.259,0.012ZM0.292,-0.1C0.319,-0.1 0.342,-0.106 0.361,-0.119C0.381,-0.132 0.397,-0.149 0.408,-0.172C0.419,-0.194 0.425,-0.219 0.425,-0.248C0.425,-0.283 0.418,-0.312 0.404,-0.334C0.39,-0.355 0.373,-0.371 0.352,-0.381C0.331,-0.391 0.311,-0.396 0.291,-0.396C0.265,-0.396 0.242,-0.39 0.223,-0.377C0.203,-0.364 0.187,-0.347 0.176,-0.326C0.165,-0.304 0.159,-0.279 0.159,-0.25C0.159,-0.222 0.165,-0.197 0.176,-0.174C0.187,-0.151 0.203,-0.133 0.223,-0.12C0.243,-0.107 0.266,-0.1 0.292,-0.1Z" style="fill:#5d4b89;fill-rule:nonzero;"/></g></g><clipPath id="_clip1"><rect x="0" y="0" width="155.661" height="155.661"/></clipPath><g clip-path="url(#_clip1)"><path id="accent" d="M48.102,149.773C19.877,138.086 0,110.252 0,77.824C0,34.842 34.844,0 77.826,0C120.808,0 155.652,34.844 155.652,77.826C155.652,104.389 134.119,125.923 107.556,125.923C91.561,125.923 77.391,118.116 68.646,106.104C71.538,107.044 74.623,107.551 77.826,107.551C94.231,107.551 107.55,94.232 107.55,77.826C107.55,61.42 94.231,48.101 77.826,48.101C61.421,48.101 48.102,61.418 48.102,77.824" style="fill:#f2d855;"/><path id="base" d="M132.854,132.854C118.766,146.942 99.308,155.661 77.83,155.661C67.304,155.661 57.264,153.567 48.102,149.773L48.102,77.824C48.102,61.418 61.421,48.101 77.826,48.101C94.231,48.101 107.55,61.42 107.55,77.826C107.55,94.232 94.231,107.551 77.826,107.551C74.623,107.551 71.538,107.044 68.646,106.104C77.391,118.116 91.561,125.923 107.556,125.923C134.119,125.923 155.661,104.406 155.661,77.843C155.661,99.321 146.942,118.766 132.854,132.854" style="fill:#5d4b89;"/></g></svg>