<svg xmlns="http://www.w3.org/2000/svg" version="1.1" xmlns:xlink="http://www.w3.org/1999/xlink" width="1000px" height="1000px"><svg xmlns="http://www.w3.org/2000/svg" version="1.1" xmlns:xlink="http://www.w3.org/1999/xlink" width="1000px" height="1000px"><svg width="1000px" height="1000px" version="1.1" xmlns="http://www.w3.org/2000/svg" xmlns:xlink="http://www.w3.org/1999/xlink" xml:space="preserve" xmlns:serif="http://www.serif.com/" style="fill-rule:evenodd;clip-rule:evenodd;stroke-linejoin:round;stroke-miterlimit:2;"><circle id="base" cx="500" cy="500" r="500" style="fill:rgb(134,115,181);"></circle><g id="ring"><path d="M845.75,661.42C893.47,559.16 893.49,441.03 845.83,338.74L811.23,354.87C854.13,446.92 854.1,553.24 811.16,645.27L845.75,661.42Z" style="fill:rgb(220,196,76);"></path><path d="M153.89,338.52C106.15,440.77 106.1,558.9 153.75,661.19L188.35,645.07C145.47,553.01 145.52,446.69 188.48,354.67L153.89,338.52Z" style="fill:rgb(220,196,76);"></path></g><path id="accent" d="M381.98,785.68C269.91,739.28 190.98,628.76 190.98,500C190.98,329.33 329.33,190.99 500,190.99C670.67,190.99 809.02,329.34 809.02,500.01C809.02,605.48 723.52,690.98 618.04,690.98C554.54,690.98 498.27,659.98 463.55,612.29C475.03,616.02 487.28,618.04 500,618.04C565.14,618.04 618.02,565.15 618.02,500.01C618.02,434.87 565.14,381.98 500,381.98C434.86,381.98 381.98,434.86 381.98,500" style="fill:rgb(220,196,76);"></path></svg></svg><style>@media (prefers-color-scheme: light) { :root { filter: none; } }
@media (prefers-color-scheme: dark) { :root { filter: none; } }
</style></svg>