<svg xmlns="http://www.w3.org/2000/svg" version="1.1" xmlns:xlink="http://www.w3.org/1999/xlink" width="1000px" height="1000px"><svg xmlns="http://www.w3.org/2000/svg" version="1.1" xmlns:xlink="http://www.w3.org/1999/xlink" width="1000px" height="1000px"><svg width="1000px" height="1000px" version="1.1" xmlns="http://www.w3.org/2000/svg" xmlns:xlink="http://www.w3.org/1999/xlink" xml:space="preserve" xmlns:serif="http://www.serif.com/" style="fill-rule:evenodd;clip-rule:evenodd;stroke-linejoin:round;stroke-miterlimit:2;"><path id="accent" d="M309.021,962.17484C127.69662,887.09394 0,708.28445 0,499.95875C0,223.83156 223.84531,0 499.9725,0C776.09968,-0 999.94499,223.8453 999.94501,499.97248C999.94501,670.61908 861.60861,808.9555 690.962,808.9555C588.21151,808.9555 497.17522,758.80111 440.99889,681.63811C459.57477,687.67262 479.39573,690.93452 499.9725,690.93452C605.3615,690.93452 690.924,605.36732 690.924,499.97252C690.924,394.57773 605.3615,309.01052 499.9725,309.01052C394.5835,309.01052 309.021,394.56396 309.021,499.95875" style="fill:rgb(242,216,85);"></path><path id="base" d="M853.48407,853.48407C762.97876,943.98938 637.97876,1000 500,1000C432.37928,1000 367.87469,986.54742 309.021,962.17484L309.021,499.95875C309.021,394.56396 394.5835,309.01052 499.9725,309.01052C605.3615,309.01052 690.924,394.57773 690.924,499.97252C690.924,605.36732 605.3615,690.93452 499.9725,690.93452C479.39573,690.93452 459.57477,687.67262 440.99889,681.63811C497.17522,758.80111 588.21151,808.9555 690.962,808.9555C861.60861,808.9555 1000.00001,670.72649 1000,500.07989C1000,638.05865 943.98938,762.97876 853.48407,853.48407" style="fill:rgb(93,75,137);"></path></svg></svg><style>@media (prefers-color-scheme: light) { :root { filter: none; } }
@media (prefers-color-scheme: dark) { :root { filter: none; } }
</style></svg>